<?xml version="1.0" standalone="no"?>
<!DOCTYPE svg PUBLIC "-//W3C//DTD SVG 20010904//EN"
 "http://www.w3.org/TR/2001/REC-SVG-20010904/DTD/svg10.dtd">
<svg version="1.0" xmlns="http://www.w3.org/2000/svg"
 width="260.000000pt" height="260.000000pt" viewBox="0 0 260.000000 260.000000"
 preserveAspectRatio="xMidYMid meet">
<metadata>
Created by potrace 1.11, written by Peter Selinger 2001-2013
</metadata>
<g transform="translate(0.000000,260.000000) scale(0.100000,-0.100000)"
fill="#000000" stroke="none">
<path d="M1262 2438 c-42 -83 -145 -279 -209 -398 -51 -97 -88 -166 -183 -345
-75 -143 -126 -238 -223 -420 -46 -88 -108 -203 -136 -256 -28 -54 -51 -103
-51 -110 0 -8 54 -122 120 -254 l121 -240 599 0 598 0 121 240 c67 132 121
247 121 255 0 8 -8 29 -18 45 -10 17 -56 102 -102 190 -46 88 -103 195 -126
238 -23 42 -40 77 -38 77 3 0 -3 12 -14 28 -10 15 -36 61 -57 102 -21 41 -50
98 -65 125 -15 28 -54 102 -88 165 -33 63 -110 210 -171 325 -61 116 -121 229
-134 253 -12 23 -24 42 -28 42 -3 0 -20 -28 -37 -62z"/>
<path d="M519 211 c-27 -37 -48 -77 -49 -91 l0 -25 199 -1 c136 0 198 3 193
11 -3 5 2 4 11 -4 14 -11 20 -11 34 0 9 8 14 9 11 4 -5 -7 187 -11 603 -10
l609 0 0 25 c0 14 -22 54 -50 92 l-49 67 -732 -1 -731 -1 -49 -66z"/>
</g>
</svg>
